inDegrees=yes
name=IMU_IK_results.mot
DataType=double
version=3
OpenSimVersion=4.4-2022-08-12-dcf8e2cb1
endheader
time	TH_y	TH_x	TH_z	TH_x_trans	TH_y_trans	TH_z_trans	SC_y	SC_z	SC_x	AC_y	AC_z	AC_x	GH_y	GH_z	GH_x	EL_x	PS_y
17.40999999999992	-166.5458223257159	-1.632575621316003	-2.362299144375452	0	0	0	-21.7838553708739	6.302535746439055	0	46.29498984657052	4.898789148368539	-1.180293057969496	9.81828949372033	-8.594946068894348	6.819059281395731	-0.9060942445285692	73.36644888273221
17.41999999999992	-166.6133367304329	-1.608357558208185	-2.424554387733171	0	0	0	-21.7838553708739	6.302535746439055	0	46.29498984657052	4.898789148368539	-1.180293057969496	10.03400296468429	-8.312627575593067	7.072382623745185	-1.021331990916484	72.75461181182332
17.42999999999993	-166.6704781282457	-1.5855405308748	-2.49413935003414	0	0	0	-21.7838553708739	6.302535746439055	0	46.29498984657052	4.898789148368539	-1.180293057969496	10.24009968949842	-7.992587017901974	7.312933549372413	-1.082303942527628	72.20722186386853
17.43999999999993	-166.7519692693204	-1.555788501184616	-2.545204375614015	0	0	0	-21.7838553708739	6.302535746439055	0	46.29498984657052	4.898789148368539	-1.180293057969496	10.4761490286738	-7.659038178716781	7.570267476213068	-1.095450899491731	71.73972275246628
17.44999999999993	-166.8137618143486	-1.529385326837019	-2.599932751231232	0	0	0	-21.7838553708739	6.302535746439055	0	46.29498984657052	4.898789148368539	-1.180293057969496	10.66512240547485	-7.299011577171708	7.804460189717115	-1.034286817425569	71.33938192155995
17.45999999999993	-166.890321982113	-1.498239684215515	-2.636748512354077	0	0	0	-21.7838553708739	6.302535746439055	0	46.29498984657052	4.898789148368539	-1.180293057969496	10.85691380995177	-6.932512537221617	8.049281488022746	-0.9177520200540186	70.98703040351072
17.46999999999993	-166.9678817162779	-1.465239477469365	-2.662226636123051	0	0	0	-21.7838553708739	6.302535746439055	0	46.29498984657052	4.898789148368539	-1.180293057969496	11.02398116904017	-6.559373899902709	8.293515456160888	-0.7389740933722945	70.67313732390851
17.47999999999993	-167.0484159071423	-1.430410759147704	-2.676904915385243	0	0	0	-21.7838553708739	6.302535746439055	0	46.29498984657052	4.898789148368539	-1.180293057969496	11.1655612619833	-6.181696431672709	8.537165473042789	-0.4996937674086123	70.38849048394502
17.48999999999993	-167.1326622164968	-1.393930610685764	-2.682096812465063	0	0	0	-21.7838553708739	6.302535746439055	0	46.29498984657052	4.898789148368539	-1.180293057969496	11.28122610861901	-5.799861370605385	8.779840503950389	-0.2016585247172399	70.12752620600205
17.49999999999994	-167.2199838504943	-1.356647629935656	-2.679037100229902	0	0	0	-21.7838553708739	6.302535746439055	0	46.29498984657052	4.898789148368539	-1.180293057969496	11.36851088184519	-5.414319137661682	9.019897281233902	0.1553330178259131	69.88689205807468
17.50999999999994	-167.3096728991772	-1.319571619686621	-2.669381066769192	0	0	0	-21.7838553708739	6.302535746439055	0	46.29498984657052	4.898789148368539	-1.180293057969496	11.425136736014	-5.02531337139205	9.254212304950183	0.5732199240630795	69.66606874972261
17.51999999999994	-167.4013787977239	-1.283493069161244	-2.655304843797558	0	0	0	-21.7838553708739	6.302535746439055	0	46.29498984657052	4.898789148368539	-1.180293057969496	11.44949865320661	-4.630831623135498	9.478881022191073	1.055692077801922	69.47067299091374
17.52999999999994	-167.5012117015354	-1.24526166936126	-2.638879760435003	0	0	0	-21.7838553708739	6.302535746439055	0	46.29498984657052	4.898789148368539	-1.180293057969496	11.45490150050321	-4.231788718224582	9.689072125627256	1.601674105118084	69.30155834419736
17.53999999999994	-167.5931675582958	-1.212780965219425	-2.624862045974186	0	0	0	-21.7838553708739	6.302535746439055	-2.262989068824544e-34	46.29498984657052	4.898789148368539	-1.180293057969496	11.40613698562486	-3.817640405568825	9.877515266808933	2.231617253821817	69.1911951392355
17.54999999999994	-167.6629879476323	-1.163661495966612	-2.630468758545149	0	0	0	-21.7838553708739	6.302535746439055	0	46.29498984657052	4.898789148368539	-1.180293057969496	11.28384059139949	-3.390706483589615	9.99730487685089	2.967020877145288	69.15797111643246
17.55999999999995	-167.7498704464739	-1.137104597864804	-2.613533568371817	0	0	0	-21.7838553708739	6.302535746439055	0	46.29498984657052	4.898789148368539	-1.180293057969496	11.13901954142321	-2.959054756639871	10.14854023377402	3.768212856520357	69.19137016277517
17.56999999999995	-167.8174659161368	-1.103802905416928	-2.608533697848428	0	0	0	-21.7838553708739	6.302535746439055	0	46.29498984657052	4.898789148368539	-1.180293057969496	10.92793279315183	-2.529185336312273	10.24462893001724	4.669604263869861	69.32100616179443
17.57999999999995	-167.8802411185845	-1.069152858816918	-2.603302156314738	0	0	0	-21.7838553708739	6.302535746439055	0	46.29498984657052	4.898789148368539	-1.180293057969496	10.67147023541498	-2.09004545691071	10.32247855060093	5.667141766093606	69.54587968578396
